<?xml version="1.0"?>
<svg version="1.1" xmlns="http://www.w3.org/2000/svg" xmlns:xlink="http://www.w3.org/1999/xlink" width="512" height="512">
    <desc iVinci="yes" version="4.6" gridStep="20" showGrid="no" snapToGrid="no" codePlatform="0"/>
    <g id="Layer1" name="Layer 1" opacity="1">
        <g id="Shape1">
            <desc shapeID="1" type="0" basicInfo-basicType="0" basicInfo-roundedRectRadius="12" basicInfo-polygonSides="6" basicInfo-starPoints="5" bounding="rect(-236.398,-254.012,472.796,508.023)" text="" font-familyName="" font-pixelSize="20" font-bold="0" font-underline="0" font-alignment="1" strokeStyle="0" markerStart="0" markerEnd="0" shadowEnabled="0" shadowOffsetX="0" shadowOffsetY="2" shadowBlur="4" shadowOpacity="160" blurEnabled="0" blurRadius="4" transform="matrix(1,0,0,1,257,256.012)" pers-center="0,0" pers-size="0,0" pers-start="0,0" pers-end="0,0" locked="0" mesh="" flag=""/>
            <path id="shapePath1" d="M374.698,231.7 C374.698,231.7 368.998,217.8 385.698,201.3 C390.798,196.3 395.998,191.8 400.298,186.7 L493.398,142.9 L421.798,104.3 C415.998,60.4997 380.498,2.00002 304.198,2.00002 C238.698,2.00002 185.398,55.2997 185.398,120.8 C185.398,163.3 208.298,202.6 245.098,223.8 C245.098,223.8 259.698,235.2 252.698,248.3 C247.198,258.6 234.198,265.9 214.798,266.6 C214.798,266.6 150.998,273.9 74.6987,176 L68.4987,167.7 L61.7987,175.6 C60.8987,176.7 -28.9012,285.6 59.4987,422.6 C96.3987,479.7 157.298,509.9 235.798,509.9 C348.498,513.3 463.498,446.2 451.698,342 C449.698,322.4 441.298,286.9 374.698,231.7 M422.898,123.5 L457.098,141.9 L415.498,161.5 C420.098,150 422.598,137.4 422.898,123.5 M235.998,493.5 C162.298,493.5 107.598,466.6 73.3987,413.7 C4.39871,306.8 50.2987,220.9 68.2987,194.5 C140.798,286.3 212.698,283.2 215.998,283 C241.298,280.7 261.298,268.9 267.298,251.8 C276.198,226.5 254.198,210.2 254.198,210.2 C221.798,192.1 201.698,157.8 201.698,120.8 C201.698,64.2997 247.598,18.4 304.098,18.4 C373.298,18.4 407.098,77.7997 406.498,122.4 C406.098,150.3 395.998,171.1 375.198,188.8 C356.998,204.2 352.598,234.2 364.498,244.6 C422.198,294.6 433.598,327.6 435.498,343.9 C445.898,435.3 339.998,493.5 235.998,493.5 Z" style="stroke:none;fill-rule:evenodd;fill:#000000;fill-opacity:1;"/>
        </g>
        <g id="Shape2">
            <desc shapeID="2" type="0" basicInfo-basicType="0" basicInfo-roundedRectRadius="12" basicInfo-polygonSides="6" basicInfo-starPoints="5" bounding="rect(-32.3005,-36.1002,64.601,72.2005)" text="" font-familyName="" font-pixelSize="20" font-bold="0" font-underline="0" font-alignment="1" strokeStyle="0" markerStart="0" markerEnd="0" shadowEnabled="0" shadowOffsetX="0" shadowOffsetY="2" shadowBlur="4" shadowOpacity="160" blurEnabled="0" blurRadius="4" transform="matrix(1,0,0,1,348.199,105.6)" pers-center="0,0" pers-size="0,0" pers-start="0,0" pers-end="0,0" locked="0" mesh="" flag=""/>
            <path id="shapePath2" d="M380.499,105.6 C380.499,85.6997 365.999,69.4997 348.199,69.4997 C330.398,69.4997 315.898,85.6997 315.898,105.6 C315.898,125.5 330.398,141.7 348.199,141.7 C365.999,141.8 380.499,125.6 380.499,105.6 M348.199,125.4 C339.398,125.4 332.299,116.5 332.299,105.6 C332.299,94.6997 339.398,85.7997 348.199,85.7997 C356.999,85.7997 364.099,94.6997 364.099,105.6 C364.099,116.5 356.999,125.4 348.199,125.4 Z" style="stroke:none;fill-rule:evenodd;fill:#000000;fill-opacity:1;"/>
        </g>
    </g>
</svg>
